<svg version="1.1" xmlns="http://www.w3.org/2000/svg" xmlns:xlink="http://www.w3.org/1999/xlink" width="12" height="13" viewBox="0,0,236.29688,256"><g fill="#495057" fill-rule="nonzero" stroke="none" stroke-width="1" stroke-linecap="butt" stroke-linejoin="miter" stroke-miterlimit="10" stroke-dasharray="" stroke-dashoffset="0" font-family="none" font-weight="none" font-size="none" text-anchor="none" style="mix-blend-mode: normal"><g transform="translate(-0.00554,9.82622) scale(19.69231,19.69231)"><path d="M11.8368,10.3765l-2.33689,-2.33685c-0.10547,-0.10548 -0.24845,-0.16407 -0.39846,-0.16407h-0.38206c0.64692,-0.82741 1.03132,-1.86811 1.03132,-3.00022c0,-2.69317 -2.18219,-4.87536 -4.87535,-4.87536c-2.69317,0 -4.87536,2.18219 -4.87536,4.87536c0,2.69316 2.18219,4.87535 4.87536,4.87535c1.13211,0 2.17281,-0.3844 3.00022,-1.03132v0.38206c0,0.15001 0.05859,0.29299 0.16407,0.39846l2.33685,2.33689c0.2204,0.2203 0.5766,0.2203 0.7946,0l0.6634,-0.6633c0.2203,-0.2204 0.2203,-0.5766 0.0023,-0.797zM4.87536,7.87558c-1.65716,0 -3.00022,-1.34073 -3.00022,-3.00022c0,-1.65716 1.34072,-3.00022 3.00022,-3.00022c1.65715,0 3.00022,1.34072 3.00022,3.00022c0,1.65715 -1.34073,3.00022 -3.00022,3.00022z"></path></g></g></svg>