<svg width="30" height="33" viewBox="0 0 30 33" fill="none" xmlns="http://www.w3.org/2000/svg">
<g filter="url(#filter0_d_1_117)">
<path fill-rule="evenodd" clip-rule="evenodd" d="M5.24994 15C5.24994 14.4477 5.69765 14 6.24994 14H23.7499C24.3022 14 24.7499 14.4477 24.7499 15C24.7499 15.5523 24.3022 16 23.7499 16H6.24994C5.69765 16 5.24994 15.5523 5.24994 15Z" fill="#1F2937"/>
<path fill-rule="evenodd" clip-rule="evenodd" d="M14.2929 5.29289C14.6834 4.90237 15.3166 4.90237 15.7071 5.29289L24.4571 14.0429C24.8476 14.4334 24.8476 15.0666 24.4571 15.4571L15.7071 24.2071C15.3166 24.5976 14.6834 24.5976 14.2929 24.2071C13.9024 23.8166 13.9024 23.1834 14.2929 22.7929L22.3358 14.75L14.2929 6.70711C13.9024 6.31658 13.9024 5.68342 14.2929 5.29289Z" fill="#1F2937"/>
</g>
<defs>
<filter id="filter0_d_1_117" x="-4" y="0" width="38" height="38" filterUnits="userSpaceOnUse" color-interpolation-filters="sRGB">
<feFlood flood-opacity="0" result="BackgroundImageFix"/>
<feColorMatrix in="SourceAlpha" type="matrix" values="0 0 0 0 0 0 0 0 0 0 0 0 0 0 0 0 0 0 127 0" result="hardAlpha"/>
<feOffset dy="4"/>
<feGaussianBlur stdDeviation="2"/>
<feComposite in2="hardAlpha" operator="out"/>
<feColorMatrix type="matrix" values="0 0 0 0 0 0 0 0 0 0 0 0 0 0 0 0 0 0 0.25 0"/>
<feBlend mode="normal" in2="BackgroundImageFix" result="effect1_dropShadow_1_117"/>
<feBlend mode="normal" in="SourceGraphic" in2="effect1_dropShadow_1_117" result="shape"/>
</filter>
</defs>
</svg>
