<svg width="16" height="14" viewBox="0 0 16 14" fill="none" xmlns="http://www.w3.org/2000/svg">
<path d="M8.03937 11.3395L8.03933 11.3394L8.03754 11.3412L7.99845 11.3784L7.9536 11.3396L7.95357 11.3395C6.24265 9.85901 4.82528 8.63223 3.83518 7.52791C2.84439 6.42282 2.29005 5.44943 2.29005 4.47652C2.29005 3.13304 3.3454 2.12325 4.76005 2.12325C5.85082 2.12325 6.91107 2.79963 7.28416 3.71265L7.29687 3.74374H7.33045H8.66965H8.70323L8.71593 3.71265C9.08902 2.79963 10.1493 2.12325 11.24 2.12325C12.6547 2.12325 13.71 3.13304 13.71 4.47652C13.71 5.44942 13.1557 6.42281 12.164 7.52789C11.173 8.63221 9.75388 9.85898 8.03937 11.3395ZM7.96727 13.3377L8.00005 13.3662L8.03283 13.3377L9.07675 12.4314C10.9297 10.829 12.472 9.49416 13.5505 8.23584C14.6294 6.97698 15.25 5.78808 15.25 4.47652C15.25 2.32489 13.4829 0.649951 11.24 0.649951C9.9926 0.649951 8.79475 1.19495 8.00005 2.054C7.20535 1.19495 6.0075 0.649951 4.76005 0.649951C2.51716 0.649951 0.750049 2.32489 0.750049 4.47652C0.750049 5.78808 1.37065 6.97698 2.44958 8.23584C3.52806 9.49416 5.07036 10.829 6.92334 12.4314L7.96727 13.3377Z" fill="#3F3F3F" stroke="#828282" stroke-width="0.1"/>
</svg>
