<svg width="16" height="14" viewBox="0 0 16 14" fill="none" xmlns="http://www.w3.org/2000/svg">
<path d="M8.00005 13.4324L7.93449 13.3755L6.89064 12.4692L8.00005 13.4324ZM8.00005 13.4324L8.06561 13.3755M8.00005 13.4324L8.06561 13.3755M8.06561 13.3755L9.10946 12.4692L8.06561 13.3755ZM8.00005 1.98089C8.80404 1.13432 9.99762 0.599951 11.24 0.599951C13.5082 0.599951 15.3 2.29501 15.3 4.47652C15.3 5.80531 14.6708 7.00551 13.5885 8.26838C12.5071 9.53014 10.9615 10.8676 9.10961 12.4691L8.00005 1.98089ZM8.00005 1.98089C7.19606 1.13432 6.00247 0.599951 4.76005 0.599951C2.49186 0.599951 0.700049 2.29501 0.700049 4.47652C0.700049 5.80531 1.32925 7.00551 2.41162 8.26838C3.49304 9.53014 5.03859 10.8676 6.89049 12.4691L8.00005 1.98089ZM8.00669 11.3016L8.00661 11.3016L8.00303 11.305L7.99684 11.3109L7.98636 11.3018L7.98628 11.3017C6.27445 9.8204 4.85991 8.59596 3.87241 7.49453C2.88353 6.39158 2.34005 5.43014 2.34005 4.47652C2.34005 3.16287 3.37075 2.17325 4.76005 2.17325C5.83279 2.17325 6.8733 2.83937 7.23788 3.73157L7.26328 3.79374H7.33045H8.66965H8.73681L8.76222 3.73157C9.1268 2.83937 10.1673 2.17325 11.24 2.17325C12.6293 2.17325 13.66 3.16287 13.66 4.47652C13.66 5.43012 13.1166 6.39156 12.1268 7.4945C11.1384 8.59591 9.7221 9.82036 8.00669 11.3016Z" fill="#828282" stroke="#3F3F3F" stroke-width="0.2"/>
</svg>
